<?xml version="1.0" encoding="utf-8"?>
<!-- Uploaded to: SVG Repo, www.svgrepo.com, Generator: SVG Repo Mixer Tools -->
<svg width="250px" height="250px" viewBox="0 0 1024 1024" class="icon"  version="1.1" xmlns="http://www.w3.org/2000/svg"><path d="M880.698823 406.885829l-107.064281 56.009741 0.863163-128.035965-0.287721-0.127876 140.535856-73.528769v127.87612zM914.74584 261.20296l-140.535856 73.528769-150.318379-72.345915 135.324904-70.20399z" fill="#5FCEFF" /><path d="M774.497705 334.859605l-0.863163 128.035965-115.312292 60.357529 1.086947-128.163842-0.287721-0.159845 115.088508-60.197683z" fill="#FF4893" /><path d="M623.891605 262.385814l150.318379 72.345915-115.088508 60.197683-147.441166-74.359964z" fill="#FF4893" /><path d="M644.895258 141.415004l114.321251 50.76682-114.321251-50.76682z" fill="#5FCEFF" /><path d="M759.216509 192.181824l-135.324904 70.20399-114.001561-54.858856 134.14205-66.495582 0.863164 0.383628z" fill="#FF4893" /><path d="M659.409197 395.089257l-1.086947 128.163842-145.938622 76.342043v-127.87612l146.737848-76.78961z" fill="#5FCEFF" /><path d="M659.121476 394.929412l-146.737848 76.78961-145.427117-76.086291 144.723799-75.063283zM644.032094 141.031376l-134.14205 66.495582-133.854329-64.417595 136.347913-60.517374z" fill="#5FCEFF" /><path d="M623.891605 262.385814l-112.211295 58.183634-113.937623-57.448347 112.147357-55.594143z" fill="#FF4893" /><path d="M512.383628 943.230246v-343.635104l145.938622-76.342043v0.255752l115.312292-60.32556v-0.287721l107.064281-56.009741-3.196903 349.581343-365.118292 194.7873-3.420686-1.918142z" fill="#FFB578" /><path d="M512.383628 599.595142v343.635104l-3.420686 6.106084-361.697605-202.971371-3.196903-339.47913 109.302113 57.192595 115.02457 60.197684z" fill="#FFB578" /><path d="M512.383628 471.719022v127.87612l-143.988511-75.319034-1.438606-128.643377z" fill="#5FCEFF" /><path d="M511.68031 320.569448l-144.723799 75.063283-115.056539-60.197684v-0.031969l145.842715-72.281977zM509.890044 207.526958l-112.147357 55.594143-136.667603-68.957197 2.589491-1.182854 112.37114-49.871687z" fill="#FF4893" /><path d="M261.075084 194.163904l136.667603 68.957197-145.842715 72.281977v0.031969l-141.878555-74.232087z" fill="#5FCEFF" /><path d="M366.956511 395.632731l1.438606 128.643377-115.02457-60.197684-1.470575-128.643377z" fill="#FF4893" /><path d="M144.068434 406.885829l-34.047017-17.806749v-127.87612l141.878555 74.232087 1.470575 128.643377z" fill="#5FCEFF" /><path d="M512.383628 494.097343a22.394306 22.394306 0 0 1-10.37395-2.547931L99.647467 281.030152a22.375124 22.375124 0 0 1 1.297942-40.280978l151.053667-67.039056a22.381518 22.381518 0 0 1 18.155212 40.910768l-108.694702 48.238069 350.927239 183.604533 350.92724-183.604533-227.494815-100.990165a22.378321 22.378321 0 0 1 18.161606-40.904374l269.847385 119.784758a22.378321 22.378321 0 0 1 1.294746 40.280978l-402.359015 210.516063a22.394306 22.394306 0 0 1-10.380344 2.551128z" fill="#4F46A3" /><path d="M263.677363 215.365764a22.378321 22.378321 0 0 1-20.466573-13.308707 22.378321 22.378321 0 0 1 11.377777-29.529793l248.719054-110.38906a22.36873 22.36873 0 0 1 18.158409 0l131.648465 58.439386a22.378321 22.378321 0 1 1-18.155212 40.907571l-122.569261-54.408092-239.649439 106.357766a22.282414 22.282414 0 0 1-9.06322 1.930929zM253.351366 486.459942a22.27602 22.27602 0 0 1-10.354769-2.554326l-143.345934-74.996147a22.378321 22.378321 0 0 1-9.456439-30.201143 22.378321 22.378321 0 0 1 30.201143-9.456439l143.352327 74.999345a22.371927 22.371927 0 0 1 9.453243 30.201142 22.378321 22.378321 0 0 1-19.849571 12.007568zM512.383628 621.973463a22.35914 22.35914 0 0 1-10.37395-2.551128l-143.988511-75.322232a22.371927 22.371927 0 0 1-9.456439-30.197946 22.36873 22.36873 0 0 1 30.201143-9.456439l133.61456 69.893891 391.991459-205.090919a22.378321 22.378321 0 1 1 20.741506 39.657582l-402.359014 210.516063a22.298398 22.298398 0 0 1-10.370754 2.551128z" fill="#4F46A3" /><path d="M110.021417 411.457401a22.378321 22.378321 0 0 1-22.378321-22.378321v-127.87612a22.378321 22.378321 0 1 1 44.756642 0v127.87612a22.378321 22.378321 0 0 1-22.378321 22.378321zM914.74584 411.457401a22.378321 22.378321 0 0 1-22.378321-22.378321v-127.87612a22.378321 22.378321 0 1 1 44.756642 0v127.87612a22.378321 22.378321 0 0 1-22.378321 22.378321zM512.383628 973.632793a22.343155 22.343155 0 0 1-10.949392-2.864425L136.315944 765.875658a22.378321 22.378321 0 0 1 21.901982-39.030989l354.437439 198.898517 354.31276-189.023283a22.378321 22.378321 0 1 1 21.06759 39.488145l-365.118291 194.790497a22.352746 22.352746 0 0 1-10.533796 2.634248z" fill="#4F46A3" /><path d="M512.383628 965.608567a22.378321 22.378321 0 0 1-22.378321-22.378321v-343.635104a22.378321 22.378321 0 1 1 44.756642 0v343.631907a22.378321 22.378321 0 0 1-22.378321 22.381518zM147.26214 768.74328a22.378321 22.378321 0 0 1-22.371927-22.170522l-3.196903-339.475933 22.378321-0.242965 22.378321 0.031969 3.196903 339.268134a22.378321 22.378321 0 0 1-22.167326 22.58612l-0.217389 0.003197zM877.505117 778.845493h-0.207799a22.384715 22.384715 0 0 1-22.173719-22.582922l3.196903-349.578147a22.394306 22.394306 0 0 1 22.375124-22.189703h0.105498a22.362336 22.362336 0 0 1 22.27602 22.362336v0.031969l-3.196903 349.785945a22.378321 22.378321 0 0 1-22.375124 22.170522z" fill="#4F46A3" /><path d="M512.383628 621.973463a22.378321 22.378321 0 0 1-22.378321-22.378321v-127.87612a22.378321 22.378321 0 1 1 44.756642 0v127.87612a22.378321 22.378321 0 0 1-22.378321 22.378321zM368.395117 546.654429a22.35914 22.35914 0 0 1-10.37395-2.551129l-115.02457-60.197684a22.375124 22.375124 0 0 1-12.001174-19.57144l-1.470575-128.643376a22.419881 22.419881 0 0 1 12.439149-20.338697l392.128925-194.371703a22.36873 22.36873 0 0 1 19.021573-0.399613l115.184415 51.150448a22.378321 22.378321 0 0 1 1.224414 40.316144l-380.035041 197.108251 1.265974 113.160776a22.378321 22.378321 0 0 1-22.295202 24.334826l-0.063938 0.003197z m-92.7997-96.204402l70.005782 36.636508-1.019812-91.204446a22.375124 22.375124 0 0 1 12.071506-20.114913l350.952814-182.022067-63.052518-27.998476-370.118248 183.463869 1.160476 101.239525z" fill="#4F46A3" /><path d="M658.32225 545.887172a22.375124 22.375124 0 0 1-22.378321-22.378321v-0.255752l0.971859-114.458719L250.992051 214.144547a22.378321 22.378321 0 0 1 0.780045-40.332128l2.589491-1.182854 111.827667-50.248921a22.387912 22.387912 0 0 1 18.785002 0.201405l0.67135 0.31969 398.206238 191.63835c7.822822 3.73718 13.081727 11.777391 13.020985 20.472967l-0.86636 128.035965c-0.057544 8.273585-4.673872 16.128376-12.004371 19.964659l-115.312291 60.322363a22.323974 22.323974 0 0 1-10.367557 2.551129zM313.050332 195.32438l356.147782 179.624388c0.255752 0.131073 0.511504 0.265343 0.76406 0.40281l0.290918 0.159845a22.378321 22.378321 0 0 1 11.534426 19.766452l-0.77365 91.102144 70.331866-36.793156 0.677743-100.699248-376.978802-181.424245-61.994343 27.86101z" fill="#4F46A3" /></svg>